<svg xmlns="http://www.w3.org/2000/svg" xmlns:xlink="http://www.w3.org/1999/xlink" viewBox="0 0 468.86 543.65"><defs><style>.cls-1{fill:none;}.cls-2{isolation:isolate;}.cls-3{clip-path:url(#clip-path);}.cls-4{fill:url(#radial-gradient);}.cls-5,.cls-6,.cls-7,.cls-8{mix-blend-mode:overlay;}.cls-5{fill:url(#linear-gradient);}.cls-6{fill:url(#linear-gradient-2);}.cls-7{fill:url(#linear-gradient-3);}.cls-8{fill:url(#White_Black_2);}.cls-9{fill:#fff;}</style><clipPath id="clip-path" transform="translate(124.55 130.77)"><path id="SVGID" class="cls-1" d="M287.32,143.67A143.45,143.45,0,0,1,143.67,287.33c-2.52,0-5-.05-7.5-.19A143.67,143.67,0,1,1,287.32,143.67Z"/></clipPath><radialGradient id="radial-gradient" cx="59.49" cy="284.74" r="484.41" gradientUnits="userSpaceOnUse"><stop offset="0" stop-color="#f9ed32"/><stop offset="0.06" stop-color="#f8e037"/><stop offset="0.16" stop-color="#f6bf43"/><stop offset="0.31" stop-color="#f38957"/><stop offset="0.48" stop-color="#ef3f73"/><stop offset="0.53" stop-color="#ee2a7b"/><stop offset="0.57" stop-color="#e22a81"/><stop offset="0.65" stop-color="#c32a93"/><stop offset="0.75" stop-color="#912aae"/><stop offset="0.88" stop-color="#4c2ad5"/><stop offset="1" stop-color="#002aff"/></radialGradient><linearGradient id="linear-gradient" x1="140.43" y1="178.89" x2="593.4" y2="178.89" gradientTransform="matrix(0.65, -0.76, 0.76, 0.65, -166.7, 351.3)" gradientUnits="userSpaceOnUse"><stop offset="0" stop-color="#231f20"/><stop offset="1" stop-color="#fff"/></linearGradient><linearGradient id="linear-gradient-2" x1="109.76" y1="62.94" x2="562.72" y2="62.94" xlink:href="#linear-gradient"/><linearGradient id="linear-gradient-3" x1="47.4" y1="153.15" x2="529.66" y2="182.56" gradientTransform="translate(-169.89 342.84) rotate(-68.61)" gradientUnits="userSpaceOnUse"><stop offset="0" stop-color="#fff"/><stop offset="1" stop-color="#231f20"/></linearGradient><linearGradient id="White_Black_2" x1="119.9" y1="3.95" x2="316.5" y2="-337.16" gradientTransform="matrix(1, -0.07, 0.07, 1, -111.03, 314.5)" xlink:href="#linear-gradient-3"/></defs><title>instagram-vector</title><g class="cls-2"><g id="Layer_1" data-name="Layer 1"><g class="cls-3"><path class="cls-4" d="M287.32,143.67A143.45,143.45,0,0,1,143.67,287.33c-2.52,0-5-.05-7.5-.19A143.67,143.67,0,1,1,287.32,143.67Z" transform="translate(124.55 130.77)"/><path class="cls-5" d="M-16.39,294.87S221,109,215.79-22.26,300-15.59,300-15.59s68.49,167.71-77.53,428.47" transform="translate(124.55 130.77)"/><path class="cls-6" d="M-124.55,243S112.83,57.2,107.64-74.1s84.19,6.67,84.19,6.67S260.33,100.28,114.31,361" transform="translate(124.55 130.77)"/><path class="cls-7" d="M-90.61,325S73.15,71.83,25.41-50.59s81.76-21.16,81.76-21.16S226.64,64.44,173.68,358.58" transform="translate(124.55 130.77)"/><path class="cls-8" d="M-105.79,84.52S193.22,123,283,27.08s54.38,64.61,54.38,64.61S266.13,258.24-22,337.44" transform="translate(124.55 130.77)"/></g><path class="cls-9" d="M182.16,242.23H107.68a60,60,0,0,1-60-59.95V116.65a60,60,0,0,1,60-59.95h74.48a60,60,0,0,1,60,60v65.63A60,60,0,0,1,182.16,242.23ZM107.68,70a46.68,46.68,0,0,0-46.62,46.63v65.63a46.68,46.68,0,0,0,46.62,46.63h74.48a46.69,46.69,0,0,0,46.63-46.63V116.65A46.69,46.69,0,0,0,182.16,70Z" transform="translate(124.55 130.77)"/><path class="cls-9" d="M144.92,202.83a53.36,53.36,0,1,1,53.36-53.36A53.42,53.42,0,0,1,144.92,202.83Zm0-93.4a40,40,0,1,0,40,40A40.08,40.08,0,0,0,144.92,109.43Z" transform="translate(124.55 130.77)"/><path class="cls-9" d="M208.54,97.75a11.07,11.07,0,1,1-11.07-11.07A11.07,11.07,0,0,1,208.54,97.75Z" transform="translate(124.55 130.77)"/></g></g></svg>