<svg xmlns="http://www.w3.org/2000/svg" xmlns:xlink="http://www.w3.org/1999/xlink" width="579.5" height="548.33" viewBox="0 0 579.5 548.33"><defs><style>.cls-1{fill:none;}.cls-2{isolation:isolate;}.cls-3{clip-path:url(#clip-path);}.cls-4{fill:#2ac6ea;}.cls-5,.cls-6,.cls-7,.cls-8{mix-blend-mode:overlay;}.cls-5{fill:url(#White_Black_2);}.cls-6{fill:url(#linear-gradient);}.cls-7{fill:url(#linear-gradient-2);}.cls-8{fill:url(#White_Black_2-2);}.cls-9{fill:#fff;}</style><clipPath id="clip-path" transform="translate(186.27 145.98)"><path id="SVGID" class="cls-1" d="M287.32,143.66A143.45,143.45,0,0,1,143.67,287.33c-2.52,0-5-.06-7.5-.19A143.67,143.67,0,1,1,287.32,143.66Z"/></clipPath><linearGradient id="White_Black_2" x1="-96.61" y1="134.7" x2="356.34" y2="134.7" gradientTransform="translate(21.12 121.48) rotate(-23.17)" gradientUnits="userSpaceOnUse"><stop offset="0" stop-color="#fff"/><stop offset="1" stop-color="#231f20"/></linearGradient><linearGradient id="linear-gradient" x1="-108.63" y1="60.56" x2="344.32" y2="60.56" gradientTransform="translate(21.12 121.48) rotate(-23.17)" gradientUnits="userSpaceOnUse"><stop offset="0" stop-color="#231f20"/><stop offset="1" stop-color="#fff"/></linearGradient><linearGradient id="linear-gradient-2" x1="-206.73" y1="5.88" x2="275.54" y2="35.28" gradientTransform="translate(21.93 111.9) rotate(-42.21)" xlink:href="#linear-gradient"/><linearGradient id="White_Black_2-2" x1="-77.25" y1="142.1" x2="119.35" y2="-199.01" gradientTransform="matrix(0.93, 0.38, -0.38, 0.93, 86.79, 112.59)" xlink:href="#White_Black_2"/></defs><title>twitter vector</title><g class="cls-2"><g id="Layer_1" data-name="Layer 1"><g class="cls-3"><path class="cls-4" d="M287.32,143.66A143.45,143.45,0,0,1,143.67,287.33c-2.52,0-5-.06-7.5-.19A143.67,143.67,0,1,1,287.32,143.66Z" transform="translate(186.27 145.98)"/><path class="cls-5" d="M-54.46,190.44s295.26-60.91,349-180.83S367,53,367,53,353.75,233.7,107,402.34" transform="translate(186.27 145.98)"/><path class="cls-6" d="M-94.68,127s295.26-60.91,349-180.82,72.44,43.41,72.44,43.41S313.53,170.27,66.8,338.91" transform="translate(186.27 145.98)"/><path class="cls-7" d="M-186.27,192.78S73,38.87,84.63-92s82.64,17.4,82.64,17.4,46.45,175.1-131.77,415" transform="translate(186.27 145.98)"/><path class="cls-8" d="M-41-37.72S209.72,129.68,332.81,83.71s20,82.06,20,82.06S214.89,283.25-78.45,226" transform="translate(186.27 145.98)"/></g><polygon class="cls-9" points="424.79 222.8 424.79 222.8 424.79 222.8 424.79 222.8"/><path class="cls-9" d="M230.85,96.75a26.22,26.22,0,0,1-7.58,1l.13-.81c3.95-3.16,13.92-12.87,15.23-17.41.58-2-.1-2.64-.1-2.7L225.8,82.23,215.14,87h0c-7.35-7.79-18.47-12.74-30.92-12.74-22.15,0-40.11,15.68-40.11,35,0,3.54.54,10,1.65,13.22,0,1,0-1,0,0-14.26-.39-32.54-6.24-48.82-14.49C64.84,91.79,62.83,80.54,62.83,80.54c-5,5.35-7.65,23.08-2.53,37,3.27,8.9,14.52,16.89,14.52,16.89h0a34.18,34.18,0,0,1-10.3-1.69c-5.27-1.78-7.26-3.55-7.26-3.55-3.13,7.64,3.15,21.29,14,31.08,6.34,5.71,17.9,9.28,17.9,9.28l-18.07.52c-1,17.56,36.84,28,36.84,28h0c-11.1,8.53-24,13.73-37.77,13.73a71.75,71.75,0,0,1-20.61-3c18.22,15,41.65,25.39,67.12,24,67.58-3.55,105.73-61.64,107.54-118.69l.09.12s3.16-1.58,9.93-8.36a69.72,69.72,0,0,0,11-14.68S235.1,95.57,230.85,96.75Z" transform="translate(186.27 145.98)"/><path class="cls-9" d="M238.53,76.82c.05,1.08,0,.11,0,0Z" transform="translate(186.27 145.98)"/></g></g></svg>