<svg xmlns="http://www.w3.org/2000/svg" xmlns:xlink="http://www.w3.org/1999/xlink" viewBox="0 0 446.02 451.64"><defs><style>.cls-1{fill:none;}.cls-2{isolation:isolate;}.cls-3{clip-path:url(#clip-path);}.cls-4{fill:url(#radial-gradient);}.cls-5{opacity:0.5;fill:url(#linear-gradient);}.cls-5,.cls-6{mix-blend-mode:overlay;}.cls-6{fill:url(#linear-gradient-2);}.cls-7{opacity:0.2;fill:url(#linear-gradient-3);}.cls-7,.cls-8{mix-blend-mode:color-burn;}.cls-8{opacity:0.3;fill:url(#linear-gradient-4);}.cls-9{fill:url(#radial-gradient-2);}.cls-10{fill:#fff;}.cls-11{fill:#e8e0e0;}</style><clipPath id="clip-path" transform="translate(74.48 69.48)"><path id="SVGID" class="cls-1" d="M271,154c0,55.3-37.16,101.77-87.49,115A115.58,115.58,0,0,1,154,272.85c-2.06,0-4.08-.05-6.11-.16C86.12,269.46,37,217.56,37,154,37,88.37,89.39,35.15,154,35.15S271,88.37,271,154Z"/></clipPath><radialGradient id="radial-gradient" cx="155.23" cy="149.74" r="119.14" gradientTransform="translate(-40.93 -37.04) scale(1.26 1.28)" gradientUnits="userSpaceOnUse"><stop offset="0" stop-color="#f6f6f7"/><stop offset="0.32" stop-color="#f2f2f3"/><stop offset="0.66" stop-color="#e5e6e7"/><stop offset="1" stop-color="#d1d3d4"/></radialGradient><linearGradient id="linear-gradient" x1="-163.39" y1="568.32" x2="210.06" y2="568.32" gradientTransform="translate(-301.77 337.94) rotate(-115.89)" gradientUnits="userSpaceOnUse"><stop offset="0" stop-color="#231f20"/><stop offset="1" stop-color="#fff"/></linearGradient><linearGradient id="linear-gradient-2" x1="-173.67" y1="507.71" x2="199.77" y2="507.71" xlink:href="#linear-gradient"/><linearGradient id="linear-gradient-3" x1="-392.37" y1="412.51" x2="3.47" y2="436.64" gradientTransform="translate(-306.74 343.85) rotate(-134.93)" gradientUnits="userSpaceOnUse"><stop offset="0" stop-color="#fff"/><stop offset="1" stop-color="#231f20"/></linearGradient><linearGradient id="linear-gradient-4" x1="141.89" y1="531.52" x2="303.91" y2="250.42" gradientTransform="translate(-310.18 253.18) rotate(-70.5)" xlink:href="#linear-gradient-3"/><radialGradient id="radial-gradient-2" cx="152.1" cy="205.75" r="111.09" gradientTransform="translate(-40.93 -37.04) scale(1.26 1.28)" gradientUnits="userSpaceOnUse"><stop offset="0.17" stop-color="#c2181e"/><stop offset="0.77" stop-color="#de2925"/></radialGradient></defs><title>youtube-vector</title><g class="cls-2"><g id="Layer_1" data-name="Layer 1"><g class="cls-3"><path class="cls-4" d="M271,154c0,55.3-37.16,101.77-87.49,115A115.58,115.58,0,0,1,154,272.85c-2.06,0-4.08-.05-6.11-.16C86.12,269.46,37,217.56,37,154,37,88.37,89.39,35.15,154,35.15S271,88.37,271,154Z" transform="translate(74.48 69.48)"/><path class="cls-5" d="M205.43,273.35S144.48,31.77,44.87-7.91,77.38-69.48,77.38-69.48s147.45,3.83,294.16,201.07" transform="translate(74.48 69.48)"/><path class="cls-6" d="M155.4,309.07S94.44,67.5-5.16,27.81s32.5-61.56,32.5-61.56S174.8-29.93,321.5,167.32" transform="translate(74.48 69.48)"/><path class="cls-7" d="M212.44,382.16S77.24,174-29.66,169.52s11-69,11-69,140.62-45.27,342.63,92.57" transform="translate(74.48 69.48)"/><path class="cls-8" d="M31.66,309.87S158.12,96.13,116-3.78s66-19.73,66-19.73,100.89,109.33,65.71,354" transform="translate(74.48 69.48)"/></g><path class="cls-9" d="M224.94,172.7c0,18.57-6.25,33.62-24.51,33.62h-94c-18.27,0-26.47-15-26.47-33.62V137.15c0-18.58,7.42-33.62,25.69-33.62H201.2c18.27,0,23.74,15,23.74,33.62Z" transform="translate(74.48 69.48)"/><polygon class="cls-10" points="212.39 204.31 251.89 225.26 212.39 246.2 212.39 204.31"/><polygon class="cls-11" points="212.39 204.63 246.74 227.98 251.89 225.26 215.44 205.94 212.39 204.59 212.39 204.63"/></g></g></svg>